<svg width="710" height="672" viewBox="0 0 710 672" fill="none" xmlns="http://www.w3.org/2000/svg">
<g filter="url(#filter0_d_11_506)">
<g filter="url(#filter1_d_11_506)">
<path d="M17.3173 68.4624C15.8892 54.0199 27.2353 41.3357 41.6319 41.8555C63.971 42.6621 86.0299 45.2577 156.253 53.5205C184.615 56.8577 220.833 61.1194 268.101 66.5611C270.151 66.7971 272.15 67.7024 273.631 69.0995L411.614 199.254L485.624 602.352C488.313 616.994 477.419 630.631 462.545 631.24C330.719 636.637 229.513 639.826 94.3911 642.525C81.4697 642.783 70.5476 632.913 69.4683 620.03C55.0894 448.399 43.359 330.474 27.4166 170.206C24.236 138.231 20.8877 104.571 17.3173 68.4624Z" fill="url(#paint0_linear_11_506)"/>
<path d="M17.3173 68.4624C15.8892 54.0199 27.2353 41.3357 41.6319 41.8555C63.971 42.6621 86.0299 45.2577 156.253 53.5205C184.615 56.8577 220.833 61.1194 268.101 66.5611C270.151 66.7971 272.15 67.7024 273.631 69.0995L411.614 199.254L485.624 602.352C488.313 616.994 477.419 630.631 462.545 631.24C330.719 636.637 229.513 639.826 94.3911 642.525C81.4697 642.783 70.5476 632.913 69.4683 620.03C55.0894 448.399 43.359 330.474 27.4166 170.206C24.236 138.231 20.8877 104.571 17.3173 68.4624Z" fill="url(#paint1_linear_11_506)" fill-opacity="0.2"/>
<path d="M17.3173 68.4624C15.8892 54.0199 27.2353 41.3357 41.6319 41.8555C63.971 42.6621 86.0299 45.2577 156.253 53.5205C184.615 56.8577 220.833 61.1194 268.101 66.5611C270.151 66.7971 272.15 67.7024 273.631 69.0995L411.614 199.254L485.624 602.352C488.313 616.994 477.419 630.631 462.545 631.24C330.719 636.637 229.513 639.826 94.3911 642.525C81.4697 642.783 70.5476 632.913 69.4683 620.03C55.0894 448.399 43.359 330.474 27.4166 170.206C24.236 138.231 20.8877 104.571 17.3173 68.4624Z" stroke="url(#paint2_linear_11_506)" stroke-width="3"/>
</g>
<g filter="url(#filter2_d_11_506)">
<path d="M271.466 205.314C267.799 205.451 264.803 202.272 265.219 198.626C273.689 124.367 274.734 123.681 269.005 70.7668C268.72 68.1343 271.734 66.4171 273.822 68.0454C323.655 106.906 358.289 137.521 412.114 193.339C415.168 196.506 412.865 201.795 408.465 201.796C340.944 201.804 360.79 201.976 271.466 205.314Z" fill="url(#paint3_linear_11_506)"/>
</g>
</g>
<g filter="url(#filter3_d_11_506)">
<path d="M102.046 365.917C102.636 361.158 108.359 359.477 113.152 359.606C152.462 360.67 334.359 365.732 339.71 368.407C342.967 370.035 344.456 372.253 344.417 374.821C344.341 379.81 338.284 381.807 333.297 381.638L112.621 374.142C108.211 373.992 103.158 372.346 102.163 368.048C101.996 367.324 101.958 366.621 102.046 365.917Z" fill="url(#paint4_linear_11_506)"/>
</g>
<g filter="url(#filter4_d_11_506)">
<path d="M109.829 429.627C109.801 424.628 115.936 422.589 120.934 422.651C158.86 423.124 321.662 425.295 326.537 427.806C329.274 429.216 330.673 431.129 330.899 433.364C331.42 438.534 325.035 440.92 319.84 440.817L120.549 436.875C115.959 436.784 110.544 435.028 109.893 430.484C109.852 430.197 109.831 429.912 109.829 429.627Z" fill="url(#paint5_linear_11_506)"/>
</g>
<g filter="url(#filter5_d_11_506)">
<path d="M117.55 495.631C117.186 490.316 123.651 487.775 128.978 487.76C166.745 487.656 317.459 487.403 322.068 489.955C324.585 491.348 325.942 493.254 326.273 495.499C327.081 500.967 320.494 503.846 314.968 503.816L128.709 502.817C123.834 502.791 118.132 500.808 117.58 495.965C117.567 495.853 117.557 495.742 117.55 495.631Z" fill="url(#paint6_linear_11_506)"/>
</g>
<g filter="url(#filter6_d_11_506)">
<path d="M124.124 564.204C123.701 558.929 130.059 556.291 135.35 556.154C173.282 555.174 326.284 551.378 331.013 553.826C333.621 555.175 335.04 557.078 335.406 559.35C336.278 564.771 329.8 567.749 324.31 567.847L135.437 571.212C130.593 571.299 124.888 569.482 124.179 564.69C124.155 564.528 124.137 564.366 124.124 564.204Z" fill="url(#paint7_linear_11_506)"/>
</g>
<g filter="url(#filter7_d_11_506)">
<path d="M102 303.522C102 299.967 104.964 297.128 108.516 297.282L176.208 300.207C179.868 300.365 182.615 303.611 182.165 307.247C181.762 310.495 178.931 312.889 175.661 312.745L107.972 309.763C104.632 309.616 102 306.865 102 303.522Z" fill="url(#paint8_linear_11_506)"/>
</g>
<g filter="url(#filter8_f_11_506)">
<ellipse cx="398.5" cy="512" rx="54.5" ry="51" fill="url(#paint9_radial_11_506)" fill-opacity="0.74"/>
</g>
<g filter="url(#filter9_d_11_506)">
<path d="M581.945 196.511H586.951L584.676 199.242L581.945 196.511Z" fill="#A2A2A2"/>
<path d="M658.069 255.813L653.237 254.508L656.472 251.256L658.069 255.813Z" fill="#A2A2A2"/>
<path d="M610.066 166.376C620.364 153.64 636.326 146.866 652.641 148.31L654.752 148.497C669.124 149.768 681.739 158.578 687.883 171.633C695.184 187.147 693.05 205.46 682.379 218.881L495.123 454.369C491.465 458.969 486.838 462.707 481.572 465.316L400.252 505.602C396.401 507.51 392.096 503.991 393.201 499.837L416.844 410.893C418.288 405.46 420.862 400.392 424.396 396.02L610.066 166.376Z" fill="url(#paint10_linear_11_506)"/>
<g filter="url(#filter10_d_11_506)">
<path d="M604.479 167.573C606.058 165.996 608.24 165.175 610.469 165.284C642.261 166.848 670.336 186.515 682.666 215.861L683.498 217.842C684.587 220.434 684.306 223.407 682.713 225.723C674.476 237.696 668.488 244.679 658.34 255.69C658.148 255.898 657.804 255.854 657.676 255.601L653.366 247.053C639.437 219.431 612.708 200.521 582.025 196.58C581.777 196.548 581.649 196.265 581.785 196.055C589.435 184.216 594.649 177.394 604.479 167.573Z" fill="url(#paint11_linear_11_506)"/>
</g>
<g filter="url(#filter11_f_11_506)">
<path d="M585.837 206.978L599.693 212.708L450.434 398.556L424.041 404.472L585.837 206.978Z" fill="url(#paint12_linear_11_506)" fill-opacity="0.74"/>
</g>
<g filter="url(#filter12_f_11_506)">
<path d="M611.943 210.618L634.277 234.736L464.541 439.966L446.794 420.854L611.943 210.618Z" fill="url(#paint13_linear_11_506)" fill-opacity="0.82"/>
</g>
<g filter="url(#filter13_f_11_506)">
<path d="M422.071 403.19C422.261 402.501 423.091 402.229 423.653 402.67L491.045 455.663C491.625 456.119 491.529 457.025 490.865 457.348L403.976 499.723C400.104 501.611 395.816 498.046 396.965 493.895L422.071 403.19Z" fill="url(#paint14_linear_11_506)"/>
</g>
<g filter="url(#filter14_f_11_506)">
<path d="M442.238 419.034L472.277 440.407L401.155 501.854L396.737 496.956L442.238 419.034Z" fill="url(#paint15_linear_11_506)" fill-opacity="0.82"/>
</g>
<g filter="url(#filter15_f_11_506)">
<path d="M639.606 245.508L653.52 251.138L488.977 453.49L483.198 453.618L639.606 245.508Z" fill="url(#paint16_linear_11_506)" fill-opacity="0.82"/>
</g>
<g filter="url(#filter16_f_11_506)">
<path d="M482.314 457.419L489.597 458.52L401.6 502.697L398.557 502.764L482.314 457.419Z" fill="url(#paint17_linear_11_506)" fill-opacity="0.82"/>
</g>
<g filter="url(#filter17_f_11_506)">
<path d="M423.555 402.434L433.656 415.087L404.895 488.456L397.648 493.663L423.555 402.434Z" fill="url(#paint18_linear_11_506)" fill-opacity="0.8"/>
</g>
<g filter="url(#filter18_f_11_506)">
<ellipse cx="673.455" cy="170.655" rx="18.9928" ry="8.47029" transform="rotate(46.5051 673.455 170.655)" fill="white" fill-opacity="0.35"/>
</g>
<g filter="url(#filter19_f_11_506)">
<ellipse cx="636.065" cy="158.542" rx="12.3616" ry="7.72533" transform="rotate(152.639 636.065 158.542)" fill="#63B7EB" fill-opacity="0.58"/>
</g>
<g filter="url(#filter20_f_11_506)">
<path d="M606.063 166.022C620.625 165.112 632.959 167.632 655.21 181.039C672.957 196.056 684.788 213.803 683.423 224.27L678.873 231.551C668.346 189.789 652.753 175.313 600.603 171.938L606.063 166.022Z" fill="white" fill-opacity="0.3"/>
</g>
<g filter="url(#filter21_f_11_506)">
<path d="M585.235 192.079C599.797 191.169 612.131 193.689 634.381 207.096C652.129 222.113 663.96 239.86 662.595 250.326L657.94 255.213C634.381 210.163 613.344 203.792 581.945 196.511L585.235 192.079Z" fill="url(#paint19_linear_11_506)" fill-opacity="0.16"/>
</g>
<g filter="url(#filter22_f_11_506)">
<path d="M607.884 165.567L632.457 169.663L605.153 199.242L583.311 195.601C590.875 182.683 596.198 176.074 607.884 165.567Z" fill="url(#paint20_linear_11_506)" fill-opacity="0.61"/>
</g>
<g filter="url(#filter23_f_11_506)">
<path d="M683.1 224.109L673.96 200.8L649.879 233.827L658.003 254.547C668.802 244.222 674.483 237.849 683.1 224.109Z" fill="url(#paint21_linear_11_506)" fill-opacity="0.68"/>
</g>
<g filter="url(#filter24_f_11_506)">
<path d="M422.221 400.831L489.569 455.522L485.501 457.258L422.221 405.172V400.831Z" fill="url(#paint22_linear_11_506)"/>
</g>
</g>
<defs>
<filter id="filter0_d_11_506" x="0.696289" y="0.339966" width="535.837" height="667.69" filterUnits="userSpaceOnUse" color-interpolation-filters="sRGB">
<feFlood flood-opacity="0" result="BackgroundImageFix"/>
<feColorMatrix in="SourceAlpha" type="matrix" values="0 0 0 0 0 0 0 0 0 0 0 0 0 0 0 0 0 0 127 0" result="hardAlpha"/>
<feOffset dx="17" dy="-8"/>
<feGaussianBlur stdDeviation="16"/>
<feComposite in2="hardAlpha" operator="out"/>
<feColorMatrix type="matrix" values="0 0 0 0 0 0 0 0 0 0 0 0 0 0 0 0 0 0 0.06 0"/>
<feBlend mode="normal" in2="BackgroundImageFix" result="effect1_dropShadow_11_506"/>
<feBlend mode="normal" in="SourceGraphic" in2="effect1_dropShadow_11_506" result="shape"/>
</filter>
<filter id="filter1_d_11_506" x="8.69629" y="33.34" width="505.837" height="637.69" filterUnits="userSpaceOnUse" color-interpolation-filters="sRGB">
<feFlood flood-opacity="0" result="BackgroundImageFix"/>
<feColorMatrix in="SourceAlpha" type="matrix" values="0 0 0 0 0 0 0 0 0 0 0 0 0 0 0 0 0 0 127 0" result="hardAlpha"/>
<feOffset dx="10" dy="10"/>
<feGaussianBlur stdDeviation="8.5"/>
<feComposite in2="hardAlpha" operator="out"/>
<feColorMatrix type="matrix" values="0 0 0 0 0 0 0 0 0 0 0 0 0 0 0 0 0 0 0.15 0"/>
<feBlend mode="normal" in2="BackgroundImageFix" result="effect1_dropShadow_11_506"/>
<feBlend mode="normal" in="SourceGraphic" in2="effect1_dropShadow_11_506" result="shape"/>
</filter>
<filter id="filter2_d_11_506" x="219.181" y="41.4103" width="218.326" height="207.908" filterUnits="userSpaceOnUse" color-interpolation-filters="sRGB">
<feFlood flood-opacity="0" result="BackgroundImageFix"/>
<feColorMatrix in="SourceAlpha" type="matrix" values="0 0 0 0 0 0 0 0 0 0 0 0 0 0 0 0 0 0 127 0" result="hardAlpha"/>
<feOffset dx="-11" dy="9"/>
<feGaussianBlur stdDeviation="17.5"/>
<feComposite in2="hardAlpha" operator="out"/>
<feColorMatrix type="matrix" values="0 0 0 0 0.5875 0 0 0 0 0.508902 0 0 0 0 0.506719 0 0 0 0.67 0"/>
<feBlend mode="normal" in2="BackgroundImageFix" result="effect1_dropShadow_11_506"/>
<feBlend mode="normal" in="SourceGraphic" in2="effect1_dropShadow_11_506" result="shape"/>
</filter>
<filter id="filter3_d_11_506" x="96" y="357.599" width="254.417" height="34.0486" filterUnits="userSpaceOnUse" color-interpolation-filters="sRGB">
<feFlood flood-opacity="0" result="BackgroundImageFix"/>
<feColorMatrix in="SourceAlpha" type="matrix" values="0 0 0 0 0 0 0 0 0 0 0 0 0 0 0 0 0 0 127 0" result="hardAlpha"/>
<feOffset dy="4"/>
<feGaussianBlur stdDeviation="3"/>
<feComposite in2="hardAlpha" operator="out"/>
<feColorMatrix type="matrix" values="0 0 0 0 0.570833 0 0 0 0 0.444774 0 0 0 0 0.444774 0 0 0 0.4 0"/>
<feBlend mode="normal" in2="BackgroundImageFix" result="effect1_dropShadow_11_506"/>
<feBlend mode="normal" in="SourceGraphic" in2="effect1_dropShadow_11_506" result="shape"/>
</filter>
<filter id="filter4_d_11_506" x="103.829" y="420.65" width="233.1" height="30.1706" filterUnits="userSpaceOnUse" color-interpolation-filters="sRGB">
<feFlood flood-opacity="0" result="BackgroundImageFix"/>
<feColorMatrix in="SourceAlpha" type="matrix" values="0 0 0 0 0 0 0 0 0 0 0 0 0 0 0 0 0 0 127 0" result="hardAlpha"/>
<feOffset dy="4"/>
<feGaussianBlur stdDeviation="3"/>
<feComposite in2="hardAlpha" operator="out"/>
<feColorMatrix type="matrix" values="0 0 0 0 0.570833 0 0 0 0 0.444774 0 0 0 0 0.444774 0 0 0 0.4 0"/>
<feBlend mode="normal" in2="BackgroundImageFix" result="effect1_dropShadow_11_506"/>
<feBlend mode="normal" in="SourceGraphic" in2="effect1_dropShadow_11_506" result="shape"/>
</filter>
<filter id="filter5_d_11_506" x="111.535" y="485.701" width="220.806" height="28.1162" filterUnits="userSpaceOnUse" color-interpolation-filters="sRGB">
<feFlood flood-opacity="0" result="BackgroundImageFix"/>
<feColorMatrix in="SourceAlpha" type="matrix" values="0 0 0 0 0 0 0 0 0 0 0 0 0 0 0 0 0 0 127 0" result="hardAlpha"/>
<feOffset dy="4"/>
<feGaussianBlur stdDeviation="3"/>
<feComposite in2="hardAlpha" operator="out"/>
<feColorMatrix type="matrix" values="0 0 0 0 0.570833 0 0 0 0 0.444774 0 0 0 0 0.444774 0 0 0 0.4 0"/>
<feBlend mode="normal" in2="BackgroundImageFix" result="effect1_dropShadow_11_506"/>
<feBlend mode="normal" in="SourceGraphic" in2="effect1_dropShadow_11_506" result="shape"/>
</filter>
<filter id="filter6_d_11_506" x="118.104" y="551.017" width="223.382" height="30.1982" filterUnits="userSpaceOnUse" color-interpolation-filters="sRGB">
<feFlood flood-opacity="0" result="BackgroundImageFix"/>
<feColorMatrix in="SourceAlpha" type="matrix" values="0 0 0 0 0 0 0 0 0 0 0 0 0 0 0 0 0 0 127 0" result="hardAlpha"/>
<feOffset dy="4"/>
<feGaussianBlur stdDeviation="3"/>
<feComposite in2="hardAlpha" operator="out"/>
<feColorMatrix type="matrix" values="0 0 0 0 0.570833 0 0 0 0 0.444774 0 0 0 0 0.444774 0 0 0 0.4 0"/>
<feBlend mode="normal" in2="BackgroundImageFix" result="effect1_dropShadow_11_506"/>
<feBlend mode="normal" in="SourceGraphic" in2="effect1_dropShadow_11_506" result="shape"/>
</filter>
<filter id="filter7_d_11_506" x="98" y="297.276" width="88.2129" height="23.4754" filterUnits="userSpaceOnUse" color-interpolation-filters="sRGB">
<feFlood flood-opacity="0" result="BackgroundImageFix"/>
<feColorMatrix in="SourceAlpha" type="matrix" values="0 0 0 0 0 0 0 0 0 0 0 0 0 0 0 0 0 0 127 0" result="hardAlpha"/>
<feOffset dy="4"/>
<feGaussianBlur stdDeviation="2"/>
<feComposite in2="hardAlpha" operator="out"/>
<feColorMatrix type="matrix" values="0 0 0 0 0.631373 0 0 0 0 0.513726 0 0 0 0 0.521569 0 0 0 0.47 0"/>
<feBlend mode="normal" in2="BackgroundImageFix" result="effect1_dropShadow_11_506"/>
<feBlend mode="normal" in="SourceGraphic" in2="effect1_dropShadow_11_506" result="shape"/>
</filter>
<filter id="filter8_f_11_506" x="311" y="428" width="175" height="168" filterUnits="userSpaceOnUse" color-interpolation-filters="sRGB">
<feFlood flood-opacity="0" result="BackgroundImageFix"/>
<feBlend mode="normal" in="SourceGraphic" in2="BackgroundImageFix" result="shape"/>
<feGaussianBlur stdDeviation="16.5" result="effect1_foregroundBlur_11_506"/>
</filter>
<filter id="filter9_d_11_506" x="376.024" y="135.118" width="333.149" height="392.017" filterUnits="userSpaceOnUse" color-interpolation-filters="sRGB">
<feFlood flood-opacity="0" result="BackgroundImageFix"/>
<feColorMatrix in="SourceAlpha" type="matrix" values="0 0 0 0 0 0 0 0 0 0 0 0 0 0 0 0 0 0 127 0" result="hardAlpha"/>
<feOffset dy="4"/>
<feGaussianBlur stdDeviation="8.5"/>
<feComposite in2="hardAlpha" operator="out"/>
<feColorMatrix type="matrix" values="0 0 0 0 0 0 0 0 0 0 0 0 0 0 0 0 0 0 0.2 0"/>
<feBlend mode="normal" in2="BackgroundImageFix" result="effect1_dropShadow_11_506"/>
<feBlend mode="normal" in="SourceGraphic" in2="effect1_dropShadow_11_506" result="shape"/>
</filter>
<filter id="filter10_d_11_506" x="563.729" y="157.275" width="128.422" height="116.547" filterUnits="userSpaceOnUse" color-interpolation-filters="sRGB">
<feFlood flood-opacity="0" result="BackgroundImageFix"/>
<feColorMatrix in="SourceAlpha" type="matrix" values="0 0 0 0 0 0 0 0 0 0 0 0 0 0 0 0 0 0 127 0" result="hardAlpha"/>
<feOffset dx="-5" dy="5"/>
<feGaussianBlur stdDeviation="6.5"/>
<feComposite in2="hardAlpha" operator="out"/>
<feColorMatrix type="matrix" values="0 0 0 0 0.313726 0 0 0 0 0.415686 0 0 0 0 0.54902 0 0 0 0.37 0"/>
<feBlend mode="normal" in2="BackgroundImageFix" result="effect1_dropShadow_11_506"/>
<feBlend mode="normal" in="SourceGraphic" in2="effect1_dropShadow_11_506" result="shape"/>
</filter>
<filter id="filter11_f_11_506" x="404.041" y="186.978" width="215.651" height="237.494" filterUnits="userSpaceOnUse" color-interpolation-filters="sRGB">
<feFlood flood-opacity="0" result="BackgroundImageFix"/>
<feBlend mode="normal" in="SourceGraphic" in2="BackgroundImageFix" result="shape"/>
<feGaussianBlur stdDeviation="10" result="effect1_foregroundBlur_11_506"/>
</filter>
<filter id="filter12_f_11_506" x="426.794" y="190.618" width="227.483" height="269.348" filterUnits="userSpaceOnUse" color-interpolation-filters="sRGB">
<feFlood flood-opacity="0" result="BackgroundImageFix"/>
<feBlend mode="normal" in="SourceGraphic" in2="BackgroundImageFix" result="shape"/>
<feGaussianBlur stdDeviation="10" result="effect1_foregroundBlur_11_506"/>
</filter>
<filter id="filter13_f_11_506" x="383.775" y="389.456" width="120.652" height="123.786" filterUnits="userSpaceOnUse" color-interpolation-filters="sRGB">
<feFlood flood-opacity="0" result="BackgroundImageFix"/>
<feBlend mode="normal" in="SourceGraphic" in2="BackgroundImageFix" result="shape"/>
<feGaussianBlur stdDeviation="6.5" result="effect1_foregroundBlur_11_506"/>
</filter>
<filter id="filter14_f_11_506" x="376.737" y="399.034" width="115.539" height="122.82" filterUnits="userSpaceOnUse" color-interpolation-filters="sRGB">
<feFlood flood-opacity="0" result="BackgroundImageFix"/>
<feBlend mode="normal" in="SourceGraphic" in2="BackgroundImageFix" result="shape"/>
<feGaussianBlur stdDeviation="10" result="effect1_foregroundBlur_11_506"/>
</filter>
<filter id="filter15_f_11_506" x="462.197" y="224.508" width="212.323" height="250.11" filterUnits="userSpaceOnUse" color-interpolation-filters="sRGB">
<feFlood flood-opacity="0" result="BackgroundImageFix"/>
<feBlend mode="normal" in="SourceGraphic" in2="BackgroundImageFix" result="shape"/>
<feGaussianBlur stdDeviation="10.5" result="effect1_foregroundBlur_11_506"/>
</filter>
<filter id="filter16_f_11_506" x="377.558" y="436.419" width="133.039" height="87.3448" filterUnits="userSpaceOnUse" color-interpolation-filters="sRGB">
<feFlood flood-opacity="0" result="BackgroundImageFix"/>
<feBlend mode="normal" in="SourceGraphic" in2="BackgroundImageFix" result="shape"/>
<feGaussianBlur stdDeviation="10.5" result="effect1_foregroundBlur_11_506"/>
</filter>
<filter id="filter17_f_11_506" x="388.647" y="393.434" width="54.0078" height="109.229" filterUnits="userSpaceOnUse" color-interpolation-filters="sRGB">
<feFlood flood-opacity="0" result="BackgroundImageFix"/>
<feBlend mode="normal" in="SourceGraphic" in2="BackgroundImageFix" result="shape"/>
<feGaussianBlur stdDeviation="4.5" result="effect1_foregroundBlur_11_506"/>
</filter>
<filter id="filter18_f_11_506" x="644.007" y="140.69" width="58.8965" height="59.9293" filterUnits="userSpaceOnUse" color-interpolation-filters="sRGB">
<feFlood flood-opacity="0" result="BackgroundImageFix"/>
<feBlend mode="normal" in="SourceGraphic" in2="BackgroundImageFix" result="shape"/>
<feGaussianBlur stdDeviation="7.5" result="effect1_foregroundBlur_11_506"/>
</filter>
<filter id="filter19_f_11_506" x="609.522" y="134.634" width="53.084" height="47.8163" filterUnits="userSpaceOnUse" color-interpolation-filters="sRGB">
<feFlood flood-opacity="0" result="BackgroundImageFix"/>
<feBlend mode="normal" in="SourceGraphic" in2="BackgroundImageFix" result="shape"/>
<feGaussianBlur stdDeviation="7.5" result="effect1_foregroundBlur_11_506"/>
</filter>
<filter id="filter20_f_11_506" x="596.603" y="161.856" width="90.9277" height="73.6948" filterUnits="userSpaceOnUse" color-interpolation-filters="sRGB">
<feFlood flood-opacity="0" result="BackgroundImageFix"/>
<feBlend mode="normal" in="SourceGraphic" in2="BackgroundImageFix" result="shape"/>
<feGaussianBlur stdDeviation="2" result="effect1_foregroundBlur_11_506"/>
</filter>
<filter id="filter21_f_11_506" x="577.945" y="187.912" width="88.7568" height="71.3011" filterUnits="userSpaceOnUse" color-interpolation-filters="sRGB">
<feFlood flood-opacity="0" result="BackgroundImageFix"/>
<feBlend mode="normal" in="SourceGraphic" in2="BackgroundImageFix" result="shape"/>
<feGaussianBlur stdDeviation="2" result="effect1_foregroundBlur_11_506"/>
</filter>
<filter id="filter22_f_11_506" x="576.311" y="158.567" width="63.1465" height="47.6741" filterUnits="userSpaceOnUse" color-interpolation-filters="sRGB">
<feFlood flood-opacity="0" result="BackgroundImageFix"/>
<feBlend mode="normal" in="SourceGraphic" in2="BackgroundImageFix" result="shape"/>
<feGaussianBlur stdDeviation="3.5" result="effect1_foregroundBlur_11_506"/>
</filter>
<filter id="filter23_f_11_506" x="642.879" y="193.8" width="47.2207" height="67.7471" filterUnits="userSpaceOnUse" color-interpolation-filters="sRGB">
<feFlood flood-opacity="0" result="BackgroundImageFix"/>
<feBlend mode="normal" in="SourceGraphic" in2="BackgroundImageFix" result="shape"/>
<feGaussianBlur stdDeviation="3.5" result="effect1_foregroundBlur_11_506"/>
</filter>
<filter id="filter24_f_11_506" x="411.221" y="389.831" width="89.3486" height="78.4269" filterUnits="userSpaceOnUse" color-interpolation-filters="sRGB">
<feFlood flood-opacity="0" result="BackgroundImageFix"/>
<feBlend mode="normal" in="SourceGraphic" in2="BackgroundImageFix" result="shape"/>
<feGaussianBlur stdDeviation="5.5" result="effect1_foregroundBlur_11_506"/>
</filter>
<linearGradient id="paint0_linear_11_506" x1="45.7986" y1="170.571" x2="446.532" y2="206.648" gradientUnits="userSpaceOnUse">
<stop stop-color="#E1E1E1"/>
<stop offset="0.302349" stop-color="#F9F9F9"/>
<stop offset="0.608197" stop-color="#F2F2F2"/>
<stop offset="1" stop-color="#DADADA"/>
</linearGradient>
<linearGradient id="paint1_linear_11_506" x1="205.105" y1="83.6922" x2="226.975" y2="666.642" gradientUnits="userSpaceOnUse">
<stop stop-color="white"/>
<stop offset="0.442708" stop-color="#BCBCBC"/>
<stop offset="1" stop-color="#6B6B6B"/>
</linearGradient>
<linearGradient id="paint2_linear_11_506" x1="64.5" y1="46" x2="463.621" y2="608.482" gradientUnits="userSpaceOnUse">
<stop stop-color="#EBEBEB" stop-opacity="0.67"/>
<stop offset="1" stop-color="#CACACA" stop-opacity="0.5"/>
</linearGradient>
<linearGradient id="paint3_linear_11_506" x1="386.572" y1="247.61" x2="190.444" y2="132.585" gradientUnits="userSpaceOnUse">
<stop stop-color="#DFDFDF"/>
<stop offset="0.505208" stop-color="#F7F7F7"/>
<stop offset="0.96875" stop-color="#DFDFDF"/>
</linearGradient>
<linearGradient id="paint4_linear_11_506" x1="223.209" y1="359.407" x2="223.209" y2="381.907" gradientUnits="userSpaceOnUse">
<stop stop-color="#797979"/>
<stop offset="0.744792" stop-color="#2E2E30"/>
</linearGradient>
<linearGradient id="paint5_linear_11_506" x1="220.197" y1="420.774" x2="220.563" y2="442.771" gradientUnits="userSpaceOnUse">
<stop stop-color="#797979"/>
<stop offset="0.744792" stop-color="#2E2E30"/>
</linearGradient>
<linearGradient id="paint6_linear_11_506" x1="221.53" y1="484.204" x2="222.354" y2="507.463" gradientUnits="userSpaceOnUse">
<stop stop-color="#797979"/>
<stop offset="0.744792" stop-color="#2E2E30"/>
</linearGradient>
<linearGradient id="paint7_linear_11_506" x1="229.123" y1="550.429" x2="230.475" y2="573.663" gradientUnits="userSpaceOnUse">
<stop stop-color="#797979"/>
<stop offset="0.744792" stop-color="#2E2E30"/>
</linearGradient>
<linearGradient id="paint8_linear_11_506" x1="142.5" y1="297" x2="142.5" y2="313" gradientUnits="userSpaceOnUse">
<stop stop-color="#636364"/>
<stop offset="1" stop-color="#2E2E30"/>
</linearGradient>
<radialGradient id="paint9_radial_11_506" cx="0" cy="0" r="1" gradientUnits="userSpaceOnUse" gradientTransform="translate(398.5 512) rotate(90) scale(51 54.5)">
<stop offset="0.0104167" stop-color="#584545" stop-opacity="0.5"/>
<stop offset="0.348958" stop-color="#886F6F" stop-opacity="0.5"/>
<stop offset="1" stop-color="#B49898" stop-opacity="0.2"/>
</radialGradient>
<linearGradient id="paint10_linear_11_506" x1="675.686" y1="156.466" x2="390.366" y2="510.955" gradientUnits="userSpaceOnUse">
<stop stop-color="#A9E6F9"/>
<stop offset="0.0680836" stop-color="#6A9ABA"/>
<stop offset="0.195968" stop-color="#52769A"/>
<stop offset="0.257654" stop-color="#528EB3"/>
<stop offset="0.446149" stop-color="#528DB2"/>
<stop offset="0.58243" stop-color="#528DB2"/>
<stop offset="0.679642" stop-color="#5992B4"/>
<stop offset="0.757464" stop-color="#66A0C5"/>
<stop offset="0.895747" stop-color="#6193B4"/>
<stop offset="1" stop-color="#61B2BB"/>
</linearGradient>
<linearGradient id="paint11_linear_11_506" x1="654.754" y1="177.854" x2="626.541" y2="216.989" gradientUnits="userSpaceOnUse">
<stop stop-color="#F9F6F8"/>
<stop offset="0.161458" stop-color="#F1E6E4"/>
<stop offset="0.625" stop-color="#E6DAD8"/>
<stop offset="1" stop-color="#D5D5D5"/>
</linearGradient>
<linearGradient id="paint12_linear_11_506" x1="590.754" y1="210.504" x2="434.684" y2="402.615" gradientUnits="userSpaceOnUse">
<stop stop-color="#7EA0C2" stop-opacity="0.63"/>
<stop offset="1" stop-color="white" stop-opacity="0.48"/>
</linearGradient>
<linearGradient id="paint13_linear_11_506" x1="616.962" y1="214.372" x2="449.53" y2="411.991" gradientUnits="userSpaceOnUse">
<stop stop-color="#598AA6" stop-opacity="0.3"/>
<stop offset="1" stop-color="#6395AE" stop-opacity="0.87"/>
</linearGradient>
<linearGradient id="paint14_linear_11_506" x1="455.829" y1="423.095" x2="398.651" y2="501.345" gradientUnits="userSpaceOnUse">
<stop stop-color="#6398B9"/>
<stop offset="0.489583" stop-color="#689FC1"/>
<stop offset="1" stop-color="#61B2BB"/>
</linearGradient>
<linearGradient id="paint15_linear_11_506" x1="451.104" y1="425.703" x2="391.409" y2="491.48" gradientUnits="userSpaceOnUse">
<stop stop-color="#4989B1"/>
<stop offset="0.484375" stop-color="#5DA6D5"/>
<stop offset="1" stop-color="#61B2BB"/>
</linearGradient>
<linearGradient id="paint16_linear_11_506" x1="644.578" y1="249.052" x2="485.993" y2="445.195" gradientUnits="userSpaceOnUse">
<stop stop-color="#34587B" stop-opacity="0.78"/>
<stop offset="1" stop-color="#3E5C7A" stop-opacity="0.62"/>
</linearGradient>
<linearGradient id="paint17_linear_11_506" x1="484.905" y1="458.138" x2="464.835" y2="521.472" gradientUnits="userSpaceOnUse">
<stop stop-color="#34587B"/>
<stop offset="1" stop-color="#3E5C7A"/>
</linearGradient>
<linearGradient id="paint18_linear_11_506" x1="422.204" y1="406.965" x2="391.14" y2="488.107" gradientUnits="userSpaceOnUse">
<stop stop-color="white" stop-opacity="0.14"/>
<stop offset="1" stop-color="white" stop-opacity="0.4"/>
</linearGradient>
<linearGradient id="paint19_linear_11_506" x1="652.479" y1="241.107" x2="616.075" y2="184.225" gradientUnits="userSpaceOnUse">
<stop stop-color="#A38E8E" stop-opacity="0.72"/>
<stop offset="0.859375" stop-color="#E5DAD8"/>
</linearGradient>
<linearGradient id="paint20_linear_11_506" x1="593.777" y1="180.129" x2="626.086" y2="189.23" gradientUnits="userSpaceOnUse">
<stop stop-color="white" stop-opacity="0.71"/>
<stop offset="1" stop-color="#EADEDC" stop-opacity="0.58"/>
</linearGradient>
<linearGradient id="paint21_linear_11_506" x1="675.232" y1="236.101" x2="651.114" y2="208.798" gradientUnits="userSpaceOnUse">
<stop stop-color="#C4B7B5"/>
<stop offset="1" stop-color="#D4CFCE" stop-opacity="0"/>
</linearGradient>
<linearGradient id="paint22_linear_11_506" x1="432.617" y1="400.831" x2="470.619" y2="460.414" gradientUnits="userSpaceOnUse">
<stop stop-color="#537CA2" stop-opacity="0.06"/>
<stop offset="1" stop-color="#537CA2" stop-opacity="0.76"/>
</linearGradient>
</defs>
</svg>
